<?xml version="1.0" standalone="no"?>
<!DOCTYPE svg PUBLIC "-//W3C//DTD SVG 20010904//EN"
 "http://www.w3.org/TR/2001/REC-SVG-20010904/DTD/svg10.dtd">
<svg version="1.0" xmlns="http://www.w3.org/2000/svg"
 width="1700.000000pt" height="1050.000000pt" viewBox="0 0 1700.000000 1050.000000"
 preserveAspectRatio="xMidYMid meet">

<g transform="translate(0.000000,1050.000000) scale(0.100000,-0.100000)"
fill="#000000" stroke="none">
<path d="M1330 8990 l0 -420 1125 0 1125 0 0 -3285 0 -3285 418 2 417 3 3
3283 2 3282 1055 0 1055 0 2 -3282 3 -3283 420 0 420 0 3 3283 2 3282 1145 0
1145 0 0 420 0 420 -4170 0 -4170 0 0 -420z"/>
<path d="M1680 8168 c-221 -35 -381 -258 -341 -475 17 -93 54 -166 116 -228
161 -161 412 -163 580 -4 82 77 118 158 123 275 4 75 0 104 -17 155 -63 190
-262 309 -461 277z"/>
<path d="M8810 5090 l0 -3090 420 0 420 0 0 1385 0 1385 735 0 735 0 0 -1395
0 -1395 420 0 420 0 0 1679 c0 1616 -1 1682 -19 1740 -33 107 -101 180 -216
233 l-50 23 -1012 3 -1013 2 0 1260 0 1260 -420 0 -420 0 0 -3090z"/>
<path d="M1330 4505 l0 -2505 420 0 420 0 0 2505 0 2505 -420 0 -420 0 0
-2505z"/>
<path d="M13597 2434 c-4 -4 -7 -25 -7 -46 0 -34 -3 -38 -26 -38 -23 0 -25 -3
-22 -32 2 -25 8 -34 26 -36 21 -3 22 -8 23 -100 0 -127 12 -162 62 -181 28
-10 48 -12 75 -5 34 8 37 12 37 44 0 33 -2 35 -32 32 -43 -5 -53 18 -53 122
l0 85 43 3 c39 3 42 5 42 33 0 28 -3 30 -42 33 -42 3 -42 3 -45 45 -3 40 -5
42 -38 45 -20 2 -39 0 -43 -4z"/>
<path d="M12386 2350 c-69 -22 -106 -85 -106 -182 0 -115 50 -173 149 -173 79
0 111 22 111 75 0 46 -3 47 -37 20 -33 -26 -85 -26 -108 0 -11 12 -20 41 -23
74 -5 65 16 113 55 122 24 6 37 3 96 -21 26 -11 24 60 -3 75 -28 15 -101 21
-134 10z"/>
<path d="M12697 2346 c-77 -29 -107 -78 -107 -177 0 -73 22 -124 63 -150 65
-39 166 -36 218 8 46 39 62 79 62 154 0 74 -19 117 -64 151 -34 25 -123 33
-172 14z m118 -81 c21 -20 25 -34 25 -82 0 -32 -6 -69 -13 -83 -26 -52 -105
-52 -132 0 -27 52 -15 149 22 178 27 20 72 14 98 -13z"/>
<path d="M13268 2344 c-47 -14 -54 -24 -48 -64 3 -22 5 -23 45 -6 45 19 106
21 123 4 7 -7 12 -24 12 -39 0 -25 -3 -26 -60 -32 -68 -7 -114 -28 -130 -56
-15 -29 -12 -93 5 -118 33 -47 126 -53 179 -12 l26 20 0 -20 c0 -17 6 -21 35
-21 l35 0 0 144 c0 129 -2 146 -20 169 -36 45 -116 58 -202 31z m130 -226 c-4
-40 -41 -64 -81 -54 -22 5 -27 12 -27 36 0 35 21 49 73 50 37 0 38 -1 35 -32z"/>
<path d="M12112 2098 c-7 -7 -12 -26 -12 -43 0 -38 16 -55 50 -55 34 0 50 17
50 55 0 38 -16 55 -50 55 -14 0 -31 -5 -38 -12z"/>
<path d="M13032 2098 c-7 -7 -12 -26 -12 -43 0 -38 16 -55 50 -55 34 0 50 17
50 55 0 38 -16 55 -50 55 -14 0 -31 -5 -38 -12z"/>
<path d="M2586 1660 c-75 -23 -115 -99 -123 -236 l-6 -94 -53 0 c-49 0 -54 -2
-60 -24 -9 -38 2 -46 61 -46 l55 0 2 -307 3 -308 40 0 40 0 3 307 2 307 88 3
87 3 0 30 0 30 -87 3 -88 3 0 77 c0 96 13 145 47 172 29 23 82 26 133 9 37
-14 50 -3 42 36 -3 18 -14 27 -41 35 -43 12 -105 12 -145 0z"/>
<path d="M10705 1648 c-3 -7 -4 -236 -3 -508 l3 -495 40 0 40 0 3 247 2 246
60 55 c66 62 113 82 172 74 43 -6 92 -44 111 -87 7 -16 14 -122 17 -280 l5
-255 40 0 40 0 0 260 0 260 -28 58 c-40 80 -94 112 -192 112 -79 0 -119 -15
-184 -71 l-41 -35 -2 213 -3 213 -38 3 c-24 2 -39 -1 -42 -10z"/>
<path d="M13045 1648 c-3 -7 -4 -236 -3 -508 l3 -495 40 0 40 0 0 505 0 505
-38 3 c-24 2 -39 -1 -42 -10z"/>
<path d="M6502 1588 c-7 -7 -12 -28 -12 -48 0 -44 15 -60 55 -60 40 0 55 16
55 60 0 44 -15 60 -55 60 -17 0 -36 -5 -43 -12z"/>
<path d="M1315 1578 c-3 -7 -4 -220 -3 -473 l3 -460 40 0 40 0 0 470 0 470
-38 3 c-24 2 -39 -1 -42 -10z"/>
<path d="M8625 1570 c-3 -11 -3 -29 0 -40 6 -19 15 -20 156 -20 l149 0 2 -432
3 -433 40 0 40 0 3 432 2 432 148 3 147 3 0 35 0 35 -342 3 c-335 2 -342 2
-348 -18z"/>
<path d="M6057 1504 c-4 -4 -7 -45 -7 -90 l0 -83 -57 -3 c-57 -3 -58 -3 -58
-33 0 -29 1 -30 57 -33 l57 -3 3 -257 c3 -236 5 -260 23 -291 36 -61 67 -76
154 -76 89 0 111 12 111 57 0 28 -2 30 -27 24 -69 -16 -102 -18 -122 -6 -45
23 -51 62 -51 315 l0 235 180 0 180 0 2 -307 3 -308 40 0 40 0 0 340 0 340
-222 3 -222 2 -3 88 -3 87 -35 3 c-20 2 -39 0 -43 -4z"/>
<path d="M1874 1317 c-28 -13 -66 -38 -86 -56 -20 -17 -38 -31 -42 -31 -3 0
-6 23 -6 51 l0 50 -37 -3 -38 -3 0 -340 0 -340 40 0 40 0 3 247 2 246 60 55
c66 62 113 82 172 74 43 -6 92 -44 111 -87 7 -16 14 -122 17 -280 l5 -255 40
0 40 0 0 260 0 260 -28 58 c-37 74 -90 107 -180 114 -51 3 -71 0 -113 -20z"/>
<path d="M3018 1327 c-148 -42 -223 -162 -221 -357 1 -160 55 -262 166 -311
42 -19 69 -24 142 -24 79 0 97 4 147 28 117 57 171 158 172 322 2 166 -51 273
-159 325 -57 27 -180 36 -247 17z m180 -73 c95 -39 136 -122 136 -269 -1 -180
-81 -275 -232 -275 -80 0 -146 41 -185 115 -30 57 -36 222 -12 295 20 61 79
125 127 139 51 14 125 13 166 -5z"/>
<path d="M3825 1326 c-16 -7 -49 -34 -73 -60 -23 -25 -45 -46 -47 -46 -3 0 -5
25 -5 56 l0 55 -37 -3 -38 -3 0 -340 0 -340 40 0 40 0 3 229 2 228 42 59 c54
78 96 104 151 95 83 -14 82 -14 82 24 0 27 -6 37 -25 47 -32 16 -97 16 -135
-1z"/>
<path d="M4369 1327 c-41 -16 -85 -45 -113 -76 -29 -32 -36 -26 -36 30 l0 50
-37 -3 -38 -3 0 -340 0 -340 40 0 40 0 3 245 2 245 48 48 c82 84 154 107 218
68 62 -38 68 -68 74 -351 l5 -255 40 0 40 0 3 247 2 246 65 61 c72 67 112 81
175 62 37 -11 65 -39 86 -86 4 -11 11 -135 14 -275 l5 -255 40 0 40 0 0 261 0
260 -30 60 c-26 50 -38 63 -85 87 -47 24 -64 28 -111 24 -68 -6 -107 -25 -172
-86 -30 -27 -52 -41 -54 -34 -12 34 -52 78 -87 96 -49 25 -129 32 -177 14z"/>
<path d="M5428 1321 c-82 -21 -108 -42 -108 -88 0 -18 4 -33 9 -33 4 0 35 14
69 31 78 40 179 50 231 22 54 -28 73 -62 79 -141 l4 -69 -113 -5 c-170 -8
-265 -53 -298 -141 -19 -49 -13 -128 12 -172 35 -62 94 -90 187 -90 80 0 126
17 188 70 l31 26 3 -43 c3 -42 4 -43 38 -43 l35 0 0 255 c0 140 -4 272 -8 293
-26 121 -178 176 -359 128z m282 -429 l0 -78 -42 -41 c-71 -70 -153 -91 -222
-58 -81 39 -89 168 -13 218 40 26 87 35 185 36 l92 1 0 -78z"/>
<path d="M7008 1327 c-148 -42 -223 -162 -221 -357 1 -160 55 -262 166 -311
42 -19 69 -24 142 -24 79 0 97 4 147 28 117 57 171 158 172 322 2 166 -51 273
-159 325 -57 27 -180 36 -247 17z m180 -73 c95 -39 136 -122 136 -269 -1 -180
-81 -275 -232 -275 -80 0 -146 41 -185 115 -30 57 -36 222 -12 295 20 61 79
125 127 139 51 14 125 13 166 -5z"/>
<path d="M7824 1317 c-28 -13 -66 -38 -86 -56 -20 -17 -38 -31 -42 -31 -3 0
-6 23 -6 51 l0 50 -37 -3 -38 -3 0 -340 0 -340 40 0 40 0 3 247 2 246 60 55
c66 62 113 82 172 74 43 -6 92 -44 111 -87 7 -16 14 -122 17 -280 l5 -255 40
0 40 0 0 260 0 260 -28 58 c-37 74 -90 107 -180 114 -51 3 -71 0 -113 -20z"/>
<path d="M9505 1331 c-145 -36 -225 -161 -225 -350 0 -159 51 -263 154 -316
55 -28 68 -30 160 -30 171 1 274 46 237 104 -7 11 -19 9 -67 -9 -131 -49 -272
-34 -333 36 -32 36 -61 117 -61 171 l0 33 234 0 c197 0 236 2 246 15 19 23 7
151 -20 208 -53 113 -190 171 -325 138z m160 -80 c22 -10 48 -28 58 -39 25
-28 46 -89 47 -134 l0 -38 -200 0 c-192 0 -200 1 -200 20 0 36 40 126 68 153
59 57 152 72 227 38z"/>
<path d="M10210 1325 c-103 -33 -171 -129 -190 -267 -21 -151 20 -303 98 -368
94 -78 253 -78 360 0 37 27 42 35 42 70 0 22 -3 40 -6 40 -4 0 -33 -18 -66
-39 -119 -80 -246 -62 -305 45 -63 114 -45 347 33 415 77 68 181 65 286 -7 42
-29 58 -25 58 15 0 56 -81 100 -194 107 -46 2 -87 -1 -116 -11z"/>
<path d="M11694 1317 c-28 -13 -66 -38 -86 -56 -20 -17 -38 -31 -42 -31 -3 0
-6 23 -6 51 l0 50 -37 -3 -38 -3 0 -340 0 -340 40 0 40 0 3 247 2 246 60 55
c66 62 113 82 172 74 43 -6 92 -44 111 -87 7 -16 14 -122 17 -280 l5 -255 40
0 40 0 0 260 0 260 -28 58 c-37 74 -90 107 -180 114 -51 3 -71 0 -113 -20z"/>
<path d="M12438 1327 c-148 -42 -223 -162 -221 -357 1 -160 55 -262 166 -311
42 -19 69 -24 142 -24 79 0 97 4 147 28 117 57 171 158 172 322 2 166 -51 273
-159 325 -57 27 -180 36 -247 17z m180 -73 c95 -39 136 -122 136 -269 -1 -180
-81 -275 -232 -275 -80 0 -146 41 -185 115 -30 57 -36 222 -12 295 20 61 79
125 127 139 51 14 125 13 166 -5z"/>
<path d="M13548 1327 c-148 -42 -223 -162 -221 -357 1 -160 55 -262 166 -311
42 -19 69 -24 142 -24 79 0 97 4 147 28 117 57 171 158 172 322 2 166 -51 273
-159 325 -57 27 -180 36 -247 17z m180 -73 c95 -39 136 -122 136 -269 -1 -180
-81 -275 -232 -275 -80 0 -146 41 -185 115 -30 57 -36 222 -12 295 20 61 79
125 127 139 51 14 125 13 166 -5z"/>
<path d="M14278 1328 c-49 -13 -116 -72 -139 -122 -25 -55 -24 -148 1 -204 20
-44 20 -44 1 -69 -50 -63 -51 -145 -1 -187 l30 -24 -32 -34 c-99 -105 -68
-238 66 -285 37 -13 82 -18 166 -18 110 0 118 1 183 33 74 37 111 84 122 157
9 58 -26 122 -84 154 -38 21 -67 26 -200 36 -86 6 -166 16 -178 23 -30 17 -40
59 -21 91 16 29 24 29 88 6 55 -21 150 -16 200 10 92 46 137 130 127 236 -3
34 -14 73 -27 93 l-21 35 58 3 c55 3 58 4 61 31 2 16 -2 29 -10 31 -31 10
-356 13 -390 4z m180 -85 c63 -46 80 -144 40 -223 -49 -95 -182 -108 -258 -25
-22 24 -25 35 -25 105 0 89 16 122 76 153 44 23 129 18 167 -10z m73 -568
c100 -52 65 -175 -60 -212 -104 -30 -275 1 -295 52 -12 33 -6 88 15 121 39 63
50 67 187 60 80 -4 134 -12 153 -21z"/>
<path d="M14775 1321 c-4 -8 220 -625 245 -670 5 -11 -6 -52 -36 -126 -55
-138 -56 -147 -6 -143 48 4 40 -13 237 511 104 276 154 422 147 429 -5 5 -25
8 -43 6 l-34 -3 -104 -293 c-59 -165 -108 -287 -112 -280 -4 7 -51 135 -104
283 -54 149 -102 276 -107 283 -12 14 -74 16 -83 3z"/>
</g>
</svg>
